<svg width="200" height="200" viewBox="0 0 200 200" fill="none" xmlns="http://www.w3.org/2000/svg">
<g filter="url(#filter0_d)">
<circle cx="96" cy="96" r="82" fill="#EFF2FF"/>
</g>
<path d="M161 96.5C161 132.122 132.122 161 96.5 161C60.8776 161 32 132.122 32 96.5C32 60.8776 60.8776 32 96.5 32C132.122 32 161 60.8776 161 96.5ZM48.653 96.5C48.653 122.925 70.0748 144.347 96.5 144.347C122.925 144.347 144.347 122.925 144.347 96.5C144.347 70.0748 122.925 48.653 96.5 48.653C70.0748 48.653 48.653 70.0748 48.653 96.5Z" fill="#4262F2"/>
<g filter="url(#filter1_d)">
<rect x="67" y="67" width="59" height="12.73" rx="4" fill="#33363A"/>
<rect x="101.864" y="67" width="59" height="12.73" rx="4" transform="rotate(90 101.864 67)" fill="#33363A"/>
</g>
<defs>
<filter id="filter0_d" x="0" y="0" width="200" height="200" filterUnits="userSpaceOnUse" color-interpolation-filters="sRGB">
<feFlood flood-opacity="0" result="BackgroundImageFix"/>
<feColorMatrix in="SourceAlpha" type="matrix" values="0 0 0 0 0 0 0 0 0 0 0 0 0 0 0 0 0 0 127 0"/>
<feMorphology radius="2" operator="dilate" in="SourceAlpha" result="effect1_dropShadow"/>
<feOffset dx="4" dy="4"/>
<feGaussianBlur stdDeviation="8"/>
<feColorMatrix type="matrix" values="0 0 0 0 0.34875 0 0 0 0 0.452109 0 0 0 0 0.9 0 0 0 0.24 0"/>
<feBlend mode="normal" in2="BackgroundImageFix" result="effect1_dropShadow"/>
<feBlend mode="normal" in="SourceGraphic" in2="effect1_dropShadow" result="shape"/>
</filter>
<filter id="filter1_d" x="63" y="67" width="67" height="67" filterUnits="userSpaceOnUse" color-interpolation-filters="sRGB">
<feFlood flood-opacity="0" result="BackgroundImageFix"/>
<feColorMatrix in="SourceAlpha" type="matrix" values="0 0 0 0 0 0 0 0 0 0 0 0 0 0 0 0 0 0 127 0"/>
<feOffset dy="4"/>
<feGaussianBlur stdDeviation="2"/>
<feColorMatrix type="matrix" values="0 0 0 0 0 0 0 0 0 0 0 0 0 0 0 0 0 0 0.25 0"/>
<feBlend mode="normal" in2="BackgroundImageFix" result="effect1_dropShadow"/>
<feBlend mode="normal" in="SourceGraphic" in2="effect1_dropShadow" result="shape"/>
</filter>
</defs>
</svg>
