<svg id="Capa_1" enable-background="new 0 0 497 497" height="512" viewBox="0 0 497 497" width="512" xmlns="http://www.w3.org/2000/svg"><g><g><path d="m358.065 96.304c0-51.865-34.612-85.366-76.868-85.741h-180.213c-24.92-.221-45.301 20.122-45.522 45.042-.345 31.584 31.155 53.352 60.806 42.784 31.643-9.334 57.488 26.134 38.783 53.31-21.729 31.569-47.034 70.762-55.267 93.183-11.203 30.507-5.784 67.557 15.216 88.557l187.5-92.5 104.13-161.13c-15.644-2.204-32.858 2.238-48.565 16.495z" fill="#b7b5e9"/><path d="m479.272 223.25c-22.642-23.047-59.681-23.376-82.728-.734l43.515-42.749c38.663-41.121 8.181-94.096-33.428-99.958l-249.5 249.5 8.87-.87 68.162 70.384c40.65 41.378 107.146 41.969 148.525 1.319l95.85-94.163c23.047-22.643 23.376-59.681.734-82.729z" fill="#9e9be1"/></g><path d="m467 470.439c-16.569 0-30-13.431-30-30 1.58-39.794 58.426-39.783 60 0 0 16.568-13.431 30-30 30z" fill="#9e9be1"/><g><path d="m204.856 324.094-42.511-42.511-162.345 140.585v64.271h65.76z" fill="#ff6c6c"/><g><path d="m204.856 324.094-21.256-21.255-183.6 183.6h65.76z" fill="#ff415b"/></g><g><path d="m227.688 250.265-26.301-44.705c-14.402 3.97-26.688 9.374-34.353 20.089-19.396 27.112-15.673 63.757 7.258 86.498l31.476-13.092z" fill="#fbf2f3"/><path d="m219.487 266.951-45.196 45.196c14.673 14.889 36.811 21.801 56.403 18.835l23.306-37.543z" fill="#efe2de"/></g><g><path d="m285.527 175.168c-25.119 20.723-58.093 23.211-84.14 30.392 1.714 18.01 6.756 42.036 18.1 61.391l46.385-29.414 28.747-45.717c-2.163-6.328-5.153-11.983-9.092-16.652z" fill="#5f5ace"/><path d="m276.017 303.615c18.124-25.334 30.112-78.122 18.602-111.795l-75.132 75.132c11.28 21.561 13.194 46.139 11.208 64.031 17.585-2.434 34.177-11.79 45.322-27.368z" fill="#463fc7"/></g></g></g></svg>