<svg id="Icon_Set" enable-background="new 0 0 256 256" height="512" viewBox="0 0 256 256" width="512" xmlns="http://www.w3.org/2000/svg"><path d="m177.188 186.951h-162.175c-5.523 0-10-4.477-10-10v-162.175c0-5.523 4.477-10 10-10h162.175c5.523 0 10 4.477 10 10v162.175c0 5.523-4.477 10-10 10z" fill="#ffe2e2"/><path d="m187.19 14.78v162.17c0 5.52-4.48 10-10 10h-15c5.52 0 10-4.48 10-10v-162.17c0-5.53-4.48-10-10-10h15c5.52 0 10 4.47 10 10z" fill="#ffcfcf"/><path d="m30.01 186.95h-15c-5.52 0-10-4.48-10-10v-162.17c0-5.53 4.48-10 10-10h15c-5.52 0-10 4.47-10 10v162.17c0 5.52 4.48 10 10 10z" fill="#ffefee"/><circle cx="106.111" cy="64.285" fill="#f9d335" r="38.828"/><path d="m144.94 64.29c0 21.44-17.39 38.82-38.83 38.82-2.57 0-5.08-.25-7.5-.73 17.86-3.49 31.33-19.22 31.33-38.09 0-18.88-13.47-34.61-31.33-38.1 2.42-.48 4.93-.73 7.5-.73 21.44 0 38.83 17.38 38.83 38.83z" fill="#f2c300"/><path d="m113.61 102.38c-2.42.48-4.93.73-7.5.73-21.44 0-38.83-17.38-38.83-38.82 0-21.45 17.39-38.83 38.83-38.83 2.57 0 5.08.25 7.5.73-17.86 3.49-31.33 19.22-31.33 38.1 0 18.87 13.47 34.6 31.33 38.09z" fill="#f9e27d"/><path d="m126.038 83.567c-3.519 0-6.869.645-9.935 1.821-.001 0-.002.001-.003.001-3.417-13.616-15.733-23.699-30.408-23.699-14.631 0-26.92 10.022-30.38 23.575-2.981-1.099-6.231-1.698-9.627-1.698-14.552 0-26.346 10.995-26.346 24.556 0 4.51 1.306 8.736 3.573 12.363 4.572 7.299 13.054 12.201 22.773 12.201h80.352c9.842 0 18.409-5.071 22.896-12.585 2.121-3.542 3.327-7.63 3.327-11.978.002-13.562-11.738-24.557-26.222-24.557z" fill="#5fcdff"/><path d="m111.04 83.57c-3.52 0-6.87.64-9.94 1.82-1.71-6.81-5.64-12.73-10.98-16.96-3.46-2.73-7.5-4.75-11.92-5.83 2.4-.6 4.91-.91 7.49-.91 7.34 0 14.09 2.52 19.43 6.74 4.96 3.93 8.71 9.32 10.58 15.53-1.51-.26-3.07-.39-4.66-.39z" fill="#30b6ff"/><path d="m152.26 108.12c0 4.35-1.2 8.44-3.33 11.98-4.48 7.52-13.05 12.59-22.89 12.59h-15c9.84 0 18.41-5.07 22.89-12.59 2.13-3.54 3.33-7.63 3.33-11.98 0-11.12-7.9-20.52-18.73-23.53 2.38-.67 4.9-1.02 7.51-1.02 14.48 0 26.22 10.99 26.22 24.55z" fill="#30b6ff"/><path d="m60.69 132.69h-15c-9.72 0-18.21-4.9-22.78-12.2-2.26-3.63-3.57-7.86-3.57-12.37 0-13.56 11.79-24.55 26.35-24.55 2.6 0 5.11.35 7.49 1.01-10.9 3.01-18.84 12.41-18.84 23.54 0 4.51 1.31 8.74 3.57 12.37 4.57 7.3 13.06 12.2 22.78 12.2z" fill="#73d7f9"/><path d="m85.69 61.69c2.59 0 5.1.31 7.51.91-11.2 2.74-20.04 11.5-22.89 22.67-2.98-1.1-6.23-1.7-9.62-1.7-1.72 0-3.4.15-5.03.45 3.87-12.92 15.85-22.33 30.03-22.33z" fill="#73d7f9"/><path d="m216.976 138.177c4.834 3.157 4.075 10.483-1.273 12.659-7.148 2.908-11.621 10.127-11.624 16.484.005 9.586 10.507 17.366 23.46 17.366 2.627-.003 5.154-.324 7.512-.914 4.713-1.18 9.221 2.712 8.736 7.546-.969 9.651-10.585 22.782-18.4 30.597-19.863 19.863-52.071 19.863-71.934 0-19.868-19.868-19.863-52.071 0-71.934 15.699-15.7 47.476-22.284 63.523-11.804z" fill="#ffbb98"/><ellipse cx="172.235" cy="165.27" fill="#5fcdff" rx="17.907" ry="9.183" transform="matrix(.707 -.707 .707 .707 -66.417 170.195)"/><circle cx="171.099" cy="204.776" fill="#f9d335" r="10.135"/><circle cx="203.323" cy="209.911" fill="#ff4a73" r="10.135"/><path d="m106.279 232.771c7.864-12.063 26.074 4.131 26.074 9.227s-11.674 9.227-26.074 9.227-26.074-4.131-26.074-9.227 14.651 8.295 26.074-9.227z" fill="#ff4a73"/><path d="m201.98 138.18c-3.61-2.36-8.02-3.85-12.86-4.57 10.53-1.37 20.74-.08 27.86 4.57 4.83 3.15 4.07 10.48-1.28 12.66-7.14 2.9-11.62 10.12-11.62 16.48 0 7.65 6.68 14.14 15.95 16.45-2.35.59-4.87.91-7.49.92-12.95 0-23.46-7.78-23.46-17.37 0-6.36 4.48-13.58 11.62-16.48 5.35-2.18 6.11-9.51 1.28-12.66z" fill="#ffaa80"/><path d="m243.79 191.32c-.97 9.65-10.59 22.78-18.4 30.59-11.85 11.85-28.08 16.63-43.47 14.35 10.42-1.55 20.45-6.33 28.47-14.35 7.81-7.81 17.43-20.94 18.4-30.59.28-2.85-1.16-5.36-3.36-6.7.69.05 1.4.07 2.11.07 2.63-.01 5.15-.33 7.51-.92 4.71-1.18 9.22 2.71 8.74 7.55z" fill="#ffaa80"/><path d="m168.45 149.98c-19.86 19.86-19.87 52.07 0 71.93 8.02 8.02 18.05 12.8 28.47 14.35-15.39 2.28-31.62-2.5-43.47-14.35-19.87-19.86-19.86-52.07 0-71.93 12.17-12.17 33.99-18.86 50.67-16.37-13.22 1.72-26.93 7.63-35.67 16.37z" fill="#ffcaa6"/><path d="m177.74 158.78c-6.69 6.69-9.5 14.83-6.59 18.65-4.77 2.48-9.24 2.84-11.58.5-3.58-3.58-.82-12.16 6.17-19.15 6.99-7 15.57-9.76 19.16-6.17.16.16.3.32.42.5-2.53 1.32-5.15 3.24-7.58 5.67z" fill="#73d7f9"/><path d="m176.6 213.28c-1.58 1.04-3.47 1.63-5.5 1.63-5.6 0-10.14-4.54-10.14-10.13 0-5.6 4.54-10.14 10.14-10.14 2.03 0 3.92.6 5.5 1.63-2.79 1.8-4.64 4.94-4.64 8.51s1.85 6.71 4.64 8.5z" fill="#f9e27d"/><path d="m208.83 218.42c-1.58 1.04-3.48 1.63-5.51 1.63-5.59 0-10.13-4.54-10.13-10.14s4.54-10.13 10.13-10.13c2.03 0 3.93.59 5.51 1.62-2.79 1.8-4.64 4.94-4.64 8.51s1.85 6.71 4.64 8.51z" fill="#f973a3"/><path d="m250.987 237.415v6.683c0 2.761-2.239 5-5 5h-111.675c-2.761 0-5-2.239-5-5v-6.683c0-2.761 2.239-5 5-5h111.676c2.761 0 4.999 2.239 4.999 5z" fill="#b76c6c"/><path d="m250.99 237.42v6.68c0 2.76-2.24 5-5 5h-15c2.76 0 5-2.24 5-5v-6.68c0-2.77-2.24-5-5-5h15c2.76 0 5 2.23 5 5z" fill="#965959"/><path d="m149.31 249.1h-15c-2.76 0-5-2.24-5-5v-6.68c0-2.77 2.24-5 5-5h15c-2.76 0-5 2.23-5 5v6.68c0 2.76 2.24 5 5 5z" fill="#c98585"/><path d="m126.73 234.13c-.16.2-.3.42-.45.64-11.42 17.52-26.08 4.13-26.08 9.23 0 2.87 3.72 5.44 9.54 7.13-1.13.06-2.29.09-3.46.09-14.4 0-26.08-4.13-26.08-9.22 0-5.1 14.66 8.29 26.08-9.23 5.07-7.77 14.43-3.81 20.45 1.36z" fill="#f973a3"/><g fill="#5f266d"><path d="m181.56 174.59c8.552-8.552 11.626-19.344 6.16-24.81-5.347-5.351-16.039-2.602-24.81 6.17-8.83 8.83-11.48 19.5-6.17 24.81 5.938 5.938 17.059 1.618 24.82-6.17zm.51-19.15c1.26 1.25-.17 7.49-6.17 13.49-6 6.01-12.24 7.43-13.5 6.17-1.26-1.25.17-7.49 6.17-13.5 6.02-6.007 12.246-7.414 13.5-6.16z"/><path d="m171.1 190.64c-7.778 0-14.14 6.323-14.14 14.14 0 7.79 6.34 14.13 14.14 14.13 7.79 0 14.13-6.34 14.13-14.13 0-7.794-6.336-14.14-14.13-14.14zm0 20.27c-3.38 0-6.14-2.75-6.14-6.13 0-3.39 2.76-6.14 6.14-6.14s6.13 2.75 6.13 6.14c0 3.38-2.75 6.13-6.13 6.13z"/><path d="m203.32 224.05c7.8 0 14.14-6.34 14.14-14.14 0-7.79-6.34-14.13-14.14-14.13-7.79 0-14.13 6.34-14.13 14.13 0 7.8 6.34 14.14 14.13 14.14zm0-20.27c3.39 0 6.14 2.75 6.14 6.13s-2.75 6.14-6.14 6.14c-3.38 0-6.13-2.76-6.13-6.14s2.75-6.13 6.13-6.13z"/><path d="m156.26 108.12c0-9.54-4.99-18.01-12.63-23.2 3.39-6.12 5.31-13.15 5.31-20.63 0-23.62-19.21-42.83-42.83-42.83-23.338 0-43.359 18.974-42.81 44.21-4.68 3.83-8.38 8.84-10.61 14.66-2.28-.51-4.62-.76-7-.76-16.74 0-30.35 12.81-30.35 28.55 0 16.137 14.015 28.57 30.35 28.57h80.35c16.472 0 30.22-12.594 30.22-28.57zm-30.22 20.57h-80.35c-12.035 0-22.35-8.947-22.35-20.57 0-11.33 10.02-20.55 22.35-20.55 2.85 0 5.63.49 8.24 1.45 2.203.81 4.668-.445 5.26-2.77 3.107-12.072 13.922-20.56 26.5-20.56 12.57 0 23.48 8.5 26.53 20.67.601 2.364 3.119 3.619 5.32 2.76 14.579-5.582 30.72 4.393 30.72 19 0 11.471-10.092 20.57-22.22 20.57zm-19.93-99.23c19.2 0 34.83 15.62 34.83 34.83 0 6.18-1.62 11.99-4.46 17.03-5.9-2.045-12.146-2.231-17.76-.91-5.17-13.56-18.2-22.72-33.03-22.72-5.02 0-9.84 1.05-14.22 2.98 1.81-17.51 16.66-31.21 34.64-31.21z"/><path d="m42.14 167.27h-15.15c-.55 0-1-.45-1-1v-21.99c0-5.285-8-5.293-8 0v21.99c0 4.96 4.03 9 9 9h15.15c5.285 0 5.293-8 0-8z"/><path d="m62.28 167.27h-5.14c-5.285 0-5.293 8 0 8h5.14c5.285 0 5.293-8 0-8z"/><path d="m245.99 228.42h-21.83c1.4-1.16 2.75-2.38 4.05-3.68 6.71-6.7 18.37-21.2 19.56-33.02.746-7.614-6.318-13.673-13.69-11.83-2.1.53-4.3.79-6.54.8-10.55 0-19.46-6.13-19.46-13.37 0-4.39 3.2-10.37 9.13-12.78 8.392-3.405 9.429-14.827 1.95-19.71-7.19-4.7-17.33-6.36-27.97-5.41v-114.64c0-7.72-6.28-14-14-14h-162.18c-7.72 0-14 6.28-14 14v162.17c0 7.72 6.28 14 14 14h119.77c1.14 12.76 6.67 24.62 15.84 33.79 1.3 1.3 2.65 2.52 4.05 3.68h-20.36c-2.17 0-4.17.78-5.73 2.07-2.93-2.38-6.35-4.36-9.64-5.34-1.68-.5-3.31-.74-4.87-.74-4.58 0-8.5 2.13-11.14 6.18-6.08 9.32-12.46 7.9-17.59 6.75-6.709-1.499-9.13 1.1-9.13 4.66 0 9.08 15.58 13.22 30.07 13.22 8.13 0 16.6-1.3 22.47-4.05 1.53 1.21 3.46 1.93 5.56 1.93h111.68c4.96 0 9-4.04 9-9v-6.68c0-4.97-4.04-9-9-9zm1 15.68c0 .55-.45 1-1 1h-110.31-1.37c-.55 0-1-.45-1-1v-6.68c0-.52.39-.93.88-.99.04-.01.08-.01.12-.01h111.68c.55 0 1 .44 1 1zm-140.71 3.12c-5.04 0-9.24-.5-12.57-1.22 5.08-.62 10.86-3.28 15.92-11.04 1.38-2.12 3.14-2.88 5.72-2.44 3.63.61 7.41 3.28 9.96 5.75v5.7c-3.49 1.58-9.87 3.25-19.03 3.25zm36.28-60.27c-1.296-42.727 51.433-59.018 72.23-45.42 2.152 1.394 1.743 4.644-.59 5.6-8.18 3.33-14.12 11.82-14.12 20.19 0 11.78 12.32 21.37 27.46 21.37 2.9-.01 5.75-.36 8.48-1.04 2.013-.499 3.998 1.17 3.79 3.27-.8 7.97-9.29 20.2-17.25 28.17-3.98 3.98-8.51 7.09-13.34 9.33h-39.6c-4.83-2.24-9.36-5.35-13.34-9.33-8.316-8.327-13.438-19.544-13.72-32.14zm-127.55-4c-3.31 0-6-2.69-6-6v-162.17c0-3.31 2.69-6 6-6h162.18c3.31 0 6 2.69 6 6v115.82c-30.094 6.186-47.258 27.732-48.55 52.35z"/></g></svg>